<svg width="192" height="65" viewBox="0 0 192 65" fill="none" xmlns="http://www.w3.org/2000/svg">
<path d="M155.067 52.6631V11.54H162.453L163.274 15.6523H163.685C164.615 14.7202 165.627 13.8977 166.721 13.1849C169.348 11.54 172.302 10.7176 175.585 10.7176C180.564 10.7176 184.531 12.2802 187.486 15.4056C190.495 18.4761 192 22.6707 192 27.9892V52.6631H183.793V27.9892C183.793 25.3025 182.835 22.9996 180.92 21.0806C179.06 19.1067 176.734 18.1197 173.944 18.1197C170.934 18.1197 168.39 19.1067 166.311 21.0806C164.286 22.9996 163.274 25.3025 163.274 27.9892V52.6631H155.067Z" fill="white"/>
<path d="M45.5637 52.6631V11.54H52.9504L53.7711 15.6523H54.1815C55.1116 14.7202 56.1239 13.8977 57.2182 13.1849C59.8446 11.54 62.7992 10.7176 66.0822 10.7176C71.0613 10.7176 75.0282 12.2802 77.9829 15.4056C80.9922 18.4761 82.4969 22.6707 82.4969 27.9892V52.6631H74.2895V27.9892C74.2895 25.3025 73.332 22.9996 71.417 21.0806C69.5566 19.1067 67.2312 18.1197 64.4407 18.1197C61.4313 18.1197 58.887 19.1067 56.8078 21.0806C54.7834 22.9996 53.7711 25.3025 53.7711 27.9892V52.6631H45.5637Z" fill="white"/>
<path d="M28.3154 52.6631L27.4947 48.1395H27.0843C26.2636 49.1813 25.2787 50.086 24.1297 50.8536C21.5033 52.6082 18.3845 53.4855 14.7733 53.4855C10.2866 53.4855 6.70269 52.3067 4.02161 49.9489C1.34054 47.5912 0 44.5207 0 40.7374C0 36.5154 1.39525 33.1982 4.18576 30.7856C7.03098 28.3731 11.2441 27.1668 16.8251 27.1668H27.0843V26.3443C27.0843 23.6576 26.3183 21.5466 24.7863 20.0114C23.2542 18.4761 21.1477 17.7085 18.4666 17.7085C15.8402 17.7085 13.8157 18.3116 12.3931 19.5179C10.9705 20.6693 10.1224 21.9853 9.84885 23.4657H1.64147C1.86034 19.8469 3.47445 16.8312 6.48382 14.4186C9.49319 11.9512 13.4874 10.7176 18.4666 10.7176C23.774 10.7176 27.9051 12.1157 30.8597 14.9121C33.8144 17.7085 35.2917 21.5192 35.2917 26.3443V52.6631H28.3154ZM27.0843 35.3914V33.7465H17.2355C14.2261 33.7465 11.9554 34.3496 10.4234 35.5559C8.94604 36.7622 8.20737 38.3522 8.20737 40.3262C8.20737 42.2452 8.8366 43.7531 10.0951 44.8497C11.3535 45.9463 13.1865 46.4946 15.594 46.4946C19.3147 46.4946 22.1599 45.5351 24.1297 43.616C26.0994 41.6421 27.0843 38.9006 27.0843 35.3914Z" fill="white"/>
<path fill-rule="evenodd" clip-rule="evenodd" d="M127.629 53.0058C141.848 46.3816 149.116 31.8309 143.862 20.5058C138.608 9.18076 122.822 5.36997 108.603 11.9942C94.3839 18.6184 87.116 33.1691 92.3698 44.4942C97.6236 55.8192 113.41 59.63 127.629 53.0058ZM108.381 29.4064C107.534 28.9199 106.865 28.2462 106.446 27.3954C104.871 24.1934 107.448 19.6947 112.201 17.3472C116.954 14.9998 122.084 15.6926 123.658 18.8946C124.672 20.9565 123.965 23.556 122.064 25.7726C123.973 26.4753 125.523 27.7468 126.396 29.5213C128.56 33.9206 125.74 39.7455 120.099 42.5317C114.458 45.3178 108.13 44.0101 105.967 39.6108C104.382 36.3895 105.47 32.4038 108.381 29.4064Z" fill="white"/>
<path d="M117.139 21.3653C117.688 22.5208 116.869 24.141 115.31 24.9842C113.75 25.8274 112.041 25.5743 111.493 24.4188C110.944 23.2634 111.763 21.6432 113.323 20.8C114.882 19.9567 116.591 20.2099 117.139 21.3653Z" fill="white"/>
<path d="M119.182 31.6644C120.11 33.2665 119.146 35.5624 117.03 36.7924C114.914 38.0225 112.447 37.7208 111.52 36.1187C110.592 34.5165 111.556 32.2206 113.672 30.9906C115.788 29.7606 118.255 30.0622 119.182 31.6644Z" fill="white"/>
</svg>
